<svg width="30" height="22" viewBox="0 0 30 22" fill="none" xmlns="http://www.w3.org/2000/svg">
<g clip-path="url(#clip0_1_15)">
<path d="M18.1919 1.53286C18.3648 1.36073 18.4542 1.12925 18.4542 0.897761C18.4542 0.666274 18.3648 0.440723 18.1919 0.262656C17.8403 -0.0875424 17.274 -0.0875424 16.9223 0.262656L7.54023 9.61116L3.06974 9.61116L11.1762 1.53287C11.3491 1.36073 11.4385 1.12925 11.4385 0.897762C11.4385 0.666275 11.3491 0.440723 11.1762 0.262657C10.8246 -0.0875418 10.2583 -0.0875418 9.90661 0.262657L0.262269 9.86639C0.178819 9.94949 0.11325 10.0504 0.0655661 10.1572C-0.0238447 10.3768 -0.0238447 10.6202 0.0655661 10.8398C0.11325 10.9526 0.178819 11.0476 0.262269 11.1307L9.90662 20.7463C10.2583 21.0965 10.8246 21.0965 11.1762 20.7463C11.5279 20.3961 11.5279 19.8322 11.1762 19.482L3.06378 11.4037L7.53427 11.4037L16.9223 20.7463C17.274 21.0965 17.8403 21.0965 18.1919 20.7463C18.5436 20.3961 18.5436 19.8322 18.1919 19.482L10.0795 11.4037L14.5559 11.4037L23.938 20.7463C24.2897 21.0965 24.856 21.0965 25.2076 20.7463C25.5593 20.3961 25.5593 19.8322 25.2076 19.482L17.0952 11.4037L29.0999 11.4037C29.5947 11.4037 30 11.006 30 10.5074C30 10.0148 29.6006 9.61116 29.0999 9.61116L17.1011 9.61116L25.2076 1.5388C25.3805 1.36667 25.4699 1.13518 25.4699 0.903695C25.4699 0.672209 25.3805 0.446658 25.2076 0.268591C24.8559 -0.0816055 24.2897 -0.0816054 23.938 0.268591L14.5559 9.61116L10.0795 9.61116L18.1919 1.53286Z" fill="#70B30E"/>
</g>
<defs>
<clipPath id="clip0_1_15">
<rect width="30" height="21" fill="white" transform="translate(30 21.0072) rotate(180)"/>
</clipPath>
</defs>
</svg>
