<svg width="54" height="67" viewBox="0 0 54 67" fill="none" xmlns="http://www.w3.org/2000/svg">
<g clip-path="url(#clip0_2_207)">
<path d="M8 0C3.6 0 0 3.6 0 8V58.7C0 63.1 3.6 66.7 8 66.7H46C50.4 66.7 54 63.1 54 58.7V20.7C54 18.2 53 15.9 51.3 14.1L39.9 2.7C38.2 1 35.8 0 33.3 0H8ZM8 3.3H33.3C34.9 3.3 36.4 3.9 37.5 5L48.9 16.4C50 17.5 50.7 19 50.7 20.6V58.6C50.7 61.2 48.6 63.3 46 63.3H8C5.4 63.3 3.3 61.2 3.3 58.6V8C3.3 5.4 5.4 3.3 8 3.3Z" fill="#70B30E"/>
<path d="M27 19.1001C26.6 19.1001 26.1 19.3001 25.8 19.6001C25.5 19.9001 25.3 20.3001 25.3 20.8001V42.8001L18.6 36.1001C17.9 35.4001 16.9 35.4001 16.2 36.1001C15.5 36.8001 15.5 37.8001 16.2 38.5001L24.1 46.4001C25.6 47.9001 28.1 47.9001 29.6 46.4001L37.5 38.5001C38.2 37.8001 38.2 36.8001 37.5 36.1001C36.8 35.4001 35.8 35.4001 35.1 36.1001L28.4 42.8001V20.8001C28.4 20.4001 28.2 19.9001 27.9 19.6001C27.6 19.3001 27.4 19.1001 27 19.1001Z" fill="#70B30E"/>
</g>
<defs>
<clipPath id="clip0_2_207">
<rect width="54" height="66.7" fill="white"/>
</clipPath>
</defs>
</svg>
