<svg width="24" height="24" viewBox="0 0 24 24" fill="none" xmlns="http://www.w3.org/2000/svg">
<path d="M12 24C18.6274 24 24 18.6274 24 12C24 5.37258 18.6274 0 12 0C5.37258 0 0 5.37258 0 12C0 18.6274 5.37258 24 12 24Z" fill="#70B30E"/>
<path d="M9.80006 17.4667C9.40006 17.4667 9.46672 17.3333 9.33339 16.9333L8.26672 13.2L17.0001 8" fill="#C8DAEA"/>
<path d="M9.80005 17.4667C10.0667 17.4667 10.2 17.3333 10.4 17.2L12 15.6L10 14.3333" fill="#A9C9DD"/>
<path d="M10.0001 14.4667L14.8667 18C15.4001 18.2667 15.8001 18.1333 15.9334 17.5333L17.8667 8.2C18.0667 7.4 17.6001 7.06667 17.0667 7.26667L5.46672 11.7333C4.66672 12.0667 4.73339 12.4667 5.33339 12.6667L8.26672 13.6L15.1334 9.33333C15.4667 9.13333 15.7334 9.26667 15.5334 9.46667" fill="url(#paint0_linear_2_251)"/>
<defs>
<linearGradient id="paint0_linear_2_251" x1="12.8553" y1="12.2907" x2="14.7243" y2="16.5603" gradientUnits="userSpaceOnUse">
<stop stop-color="#EFF7FC"/>
<stop offset="1" stop-color="white"/>
</linearGradient>
</defs>
</svg>
