<svg width="24" height="24" viewBox="0 0 24 24" fill="none" xmlns="http://www.w3.org/2000/svg">
<path d="M0 12C0 5.4 5.28134 0 11.9666 0C18.6518 0 24 5.4 24 12C24 18.6 18.585 24 11.9666 24C5.34819 24 0 18.6 0 12Z" fill="#70B30E"/>
<path d="M11.5655 17.2667H12.5014C12.5014 17.2667 12.7689 17.2667 12.9026 17.0667C12.9694 16.8667 12.9694 16.6667 12.9694 16.6667C12.9694 16.6667 12.9694 15.4 13.5711 15.2C14.1728 15 14.9081 16.4667 15.7104 16.9333C16.312 17.3333 16.78 17.2 16.78 17.2H18.9193C18.9193 17.2 19.9889 17.1333 19.5209 16.2667C19.5209 16.2 19.2535 15.6 17.9833 14.4667C16.6463 13.2 16.8468 13.4 18.4513 11.2667C19.3872 10 19.7884 9.13333 19.7215 8.86667C19.6546 8.6 18.8524 8.66667 18.8524 8.66667H16.4457C16.4457 8.66667 16.2452 8.66667 16.1783 8.73333C16.1115 8.8 15.9778 9 15.9778 9C15.9778 9 15.5767 9.93333 15.1087 10.8C14.039 12.6 13.6379 12.7333 13.5042 12.5333C13.1031 12.2667 13.2368 11.4667 13.2368 10.9333C13.2368 9.2 13.5042 8.46667 12.7689 8.26667C12.5014 8.2 12.3009 8.2 11.6324 8.2C10.7633 8.2 10.0948 8.2 9.69365 8.4C9.29253 8.6 9.09197 8.86667 9.22568 8.86667C9.42624 8.86667 9.69365 8.93333 9.8942 9.26667C10.0948 9.53333 10.0948 10.3333 10.0948 10.3333C10.0948 10.3333 10.2953 12.3333 9.82735 12.6667C9.55994 12.8667 9.15883 12.4667 8.22289 10.8667C7.75493 10 7.35381 9.13333 7.35381 9.13333C7.35381 9.13333 7.28696 8.93333 7.15326 8.86667C7.0864 8.8 6.75214 8.8 6.75214 8.8H4.34546C4.34546 8.8 3.94434 8.8 3.87749 9C3.81064 9.06667 3.87749 9.4 3.87749 9.4C3.87749 9.4 5.61565 13.5333 7.62122 15.6667C9.42624 17.4 11.5655 17.2667 11.5655 17.2667Z" fill="white"/>
</svg>
