<svg width="270" height="239" viewBox="0 0 270 239" fill="none" xmlns="http://www.w3.org/2000/svg">
<g clip-path="url(#clip0_1_159)">
<path d="M5.98523 27.5486H11.5271V85.009H5.98523V27.5486Z" stroke="#8C8C8C" stroke-width="1.5" stroke-miterlimit="10" stroke-linecap="round"/>
<path d="M0.591125 27.5486H6.133V85.009H0.591125V27.5486Z" stroke="#8C8C8C" stroke-width="1.5" stroke-miterlimit="10" stroke-linecap="round"/>
<path d="M5.98523 132.056H11.5271V198.6H5.98523V132.056Z" stroke="#8C8C8C" stroke-width="1.5" stroke-miterlimit="10" stroke-linecap="round"/>
<path d="M0.591125 132.056H6.133V198.6H0.591125V132.056Z" stroke="#8C8C8C" stroke-width="1.5" stroke-miterlimit="10" stroke-linecap="round"/>
<path d="M269.778 119.352H245.32V117.506M245.32 149.633V147.935M245.69 147.935C259.36 145.867 269.852 133.902 269.852 119.426" stroke="black" stroke-width="0.5" stroke-miterlimit="10" stroke-linecap="round" stroke-linejoin="round"/>
<path d="M155.985 160.786H174.458V183.607H155.985V160.786Z" stroke="#8C8C8C" stroke-miterlimit="10" stroke-linecap="round" stroke-linejoin="round"/>
<path d="M174.458 182.869L161.158 181.613L158.202 160.712H155.985V183.534H174.458V182.869Z" stroke="#8C8C8C" stroke-miterlimit="10" stroke-linecap="round" stroke-linejoin="round"/>
<path d="M155.985 188.26H174.458V230.359H155.985V188.26Z" stroke="#8C8C8C" stroke-miterlimit="10" stroke-linecap="round" stroke-linejoin="round"/>
<path d="M174.458 229.029L161.158 226.74L158.202 188.26H155.985V230.359H174.458V229.029Z" stroke="#8C8C8C" stroke-miterlimit="10" stroke-linecap="round" stroke-linejoin="round"/>
<path d="M183.251 229.029H239.704V202.441H183.251V229.029Z" stroke="#8C8C8C" stroke-miterlimit="10" stroke-linecap="round" stroke-linejoin="round"/>
<path d="M183.251 229.029H239.704V202.441H183.251V229.029Z" stroke="#8C8C8C" stroke-miterlimit="10" stroke-linecap="round" stroke-linejoin="round"/>
<path d="M186.207 213.962V217.581C186.207 222.678 190.197 226.813 195.148 226.813H233.276C235.567 226.813 237.488 224.893 237.488 222.456V209.014C237.488 206.651 235.567 204.656 233.276 204.656H195.148C190.197 204.73 186.207 208.792 186.207 213.962Z" stroke="#8C8C8C" stroke-miterlimit="10" stroke-linecap="round" stroke-linejoin="round"/>
<path d="M231.576 214.036C230.616 214.036 229.877 214.849 229.877 215.735C229.877 216.695 230.616 217.434 231.576 217.434C232.463 217.434 233.202 216.695 233.202 215.735C233.202 214.775 232.463 214.036 231.576 214.036Z" stroke="#8C8C8C" stroke-miterlimit="10" stroke-linecap="round" stroke-linejoin="round"/>
<g opacity="0.5">
<path d="M187.315 172.529V184.051C187.315 185.232 186.207 186.119 185.099 185.897L180.517 185.158V171.421L185.099 170.683C186.207 170.461 187.315 171.347 187.315 172.529ZM187.315 184.42V172.234L197.217 171.569C201.207 171.347 204.532 174.375 204.532 178.29C204.532 182.204 201.133 185.306 197.217 185.011L187.315 184.42Z" stroke="#8C8C8C" stroke-miterlimit="10" stroke-linecap="round" stroke-linejoin="round"/>
</g>
<path d="M187.315 172.529V184.051C187.315 185.232 186.207 186.119 185.099 185.897L180.517 185.158V171.421L185.099 170.683C186.207 170.461 187.315 171.347 187.315 172.529ZM204.532 178.29C204.532 182.204 201.133 185.306 197.217 185.011L187.315 184.346V172.16L197.217 171.495C201.207 171.347 204.532 174.449 204.532 178.29Z" stroke="#8C8C8C" stroke-miterlimit="10" stroke-linecap="round" stroke-linejoin="round"/>
<path d="M188.645 182.13L197.291 183.829C198.842 183.903 200.32 183.386 201.502 182.352C202.611 181.318 203.276 179.841 203.276 178.364C203.276 176.813 202.611 175.409 201.502 174.375C200.32 173.341 198.842 172.75 197.291 172.898L188.645 174.597V182.13ZM183.621 177.33C183.103 177.33 182.66 177.773 182.66 178.29C182.66 178.807 183.103 179.25 183.621 179.25C184.138 179.25 184.581 178.807 184.581 178.29C184.581 177.773 184.138 177.33 183.621 177.33Z" stroke="#8C8C8C" stroke-miterlimit="10" stroke-linecap="round" stroke-linejoin="round"/>
<path d="M225.443 187.891V186.414C225.443 181.318 229.507 177.108 234.532 177.108H239.704V197.197H234.532C229.507 197.197 225.443 192.987 225.443 187.891Z" stroke="#8C8C8C" stroke-miterlimit="10" stroke-linecap="round" stroke-linejoin="round"/>
<path d="M226.847 187.743V186.488C226.847 182.204 230.246 178.733 234.458 178.733H235.197C235.566 178.733 235.862 179.028 235.862 179.398V194.834C235.862 195.203 235.566 195.498 235.197 195.498H234.458C230.246 195.498 226.847 192.027 226.847 187.743Z" stroke="#8C8C8C" stroke-miterlimit="10" stroke-linecap="round" stroke-linejoin="round"/>
<path d="M233.498 188.482C232.759 188.482 232.167 187.891 232.167 187.153C232.167 186.414 232.759 185.823 233.498 185.823C234.163 185.823 234.754 186.414 234.754 187.153C234.754 187.891 234.163 188.408 233.498 188.482Z" stroke="#8C8C8C" stroke-miterlimit="10" stroke-linecap="round" stroke-linejoin="round"/>
<path d="M225.443 187.891V186.414C225.443 181.318 229.507 177.108 234.532 177.108H239.704V197.197H234.532C229.507 197.197 225.443 192.987 225.443 187.891Z" stroke="#8C8C8C" stroke-miterlimit="10" stroke-linecap="round" stroke-linejoin="round"/>
<path d="M127.906 183.829H149.852V205.321H127.906V183.829Z" stroke="#8C8C8C" stroke-miterlimit="10" stroke-linecap="round" stroke-linejoin="round"/>
<path d="M148.153 187.522V201.407C148.153 202.22 147.488 202.884 146.675 202.884H133.079C132.266 202.884 131.601 202.22 131.601 201.407V187.522C131.601 186.71 132.266 186.045 133.079 186.045H146.675C147.488 186.119 148.153 186.71 148.153 187.522Z" stroke="#8C8C8C" stroke-miterlimit="10" stroke-linecap="round" stroke-linejoin="round"/>
<path d="M143.571 200.077C143.571 200.816 144.163 201.407 144.901 201.407C145.64 201.407 146.232 200.816 146.232 200.077C146.232 199.339 145.64 198.748 144.901 198.748C144.163 198.748 143.571 199.339 143.571 200.077Z" stroke="#8C8C8C" stroke-miterlimit="10" stroke-linecap="round" stroke-linejoin="round"/>
<path d="M86.0837 206.799H107.66V228.956H86.0837V206.799Z" stroke="#8C8C8C" stroke-miterlimit="10" stroke-linecap="round" stroke-linejoin="round"/>
<path d="M92.069 215.661C93.9162 215.661 95.3941 214.184 95.3941 212.338C95.3941 210.491 93.9162 209.014 92.069 209.014C90.2217 209.014 88.7438 210.491 88.7438 212.338C88.7438 214.11 90.2217 215.661 92.069 215.661ZM92.069 224.45C93.9162 224.45 95.3941 222.973 95.3941 221.127C95.3941 219.28 93.9162 217.803 92.069 217.803C90.2217 217.803 88.7438 219.28 88.7438 221.127C88.7438 222.973 90.2217 224.45 92.069 224.45Z" stroke="#8C8C8C" stroke-miterlimit="10" stroke-linecap="round" stroke-linejoin="round"/>
<path d="M101.749 215.661C103.596 215.661 105.074 214.184 105.074 212.338C105.074 210.491 103.596 209.014 101.749 209.014C99.9015 209.014 98.4236 210.491 98.4236 212.338C98.4236 214.11 99.9015 215.661 101.749 215.661ZM101.749 224.45C103.596 224.45 105.074 222.899 105.074 221.053C105.074 219.28 103.596 217.803 101.749 217.729C99.9015 217.729 98.4236 219.206 98.4236 221.053C98.4236 222.973 99.9015 224.45 101.749 224.45Z" stroke="#8C8C8C" stroke-miterlimit="10" stroke-linecap="round" stroke-linejoin="round"/>
<path d="M86.0837 226.592H107.365" stroke="#8C8C8C" stroke-miterlimit="10" stroke-linecap="round" stroke-linejoin="round"/>
<path d="M249.532 150.15H241.108V150.52H225.813V155.173H241.108V230.433H179.261V155.173H197.438V150.52H179.261V149.633H174.606V156.059H151.33V160.712V230.433H11.6749V199.634H0.443359V238.852H249.458V234.125L249.532 150.15ZM174.606 160.786V183.608H155.985V160.786H174.606ZM155.985 188.26H174.606V230.433H155.985V188.26ZM249.606 8.56736V0.147705L1.10838 0.221562H0.517251V26.8099H11.7488V8.56736H174.68V77.0324H179.335V69.7945H183.99V65.1415H179.335V8.56736H241.182V65.1415H212.365V69.7945H241.182V116.767H249.606V8.56736ZM0.517251 131.391H11.7488V119.131H179.335V114.478V111.45H174.68V114.478H11.7488V108.569V85.8214H0.443359V118.466V131.391H0.517251Z" fill="#A6A6A6" stroke="black" stroke-width="0.5" stroke-miterlimit="10"/>
</g>
<defs>
<clipPath id="clip0_1_159">
<rect width="270" height="239" fill="white"/>
</clipPath>
</defs>
</svg>
