<svg width="256" height="268" viewBox="0 0 256 268" fill="none" xmlns="http://www.w3.org/2000/svg">
<g clip-path="url(#clip0_1_51)">
<path d="M163.006 1.98865H229.593V12.5434H163.006V1.98865Z" fill="white" stroke="#8C8C8C" stroke-width="1.5" stroke-miterlimit="10"/>
<path d="M229.669 6.65417L163.082 6.73066L229.669 6.65417Z" fill="white"/>
<path d="M229.669 6.65417L163.082 6.73066" stroke="#8C8C8C" stroke-width="1.5" stroke-miterlimit="10"/>
<path d="M31.1249 1.75916H98.6255V12.3139H31.1249V1.75916Z" fill="white" stroke="#8C8C8C" stroke-width="1.5" stroke-miterlimit="10"/>
<path d="M98.7016 6.65417L31.201 6.80714L98.7016 6.65417Z" fill="white"/>
<path d="M98.7016 6.65417L31.201 6.80714" stroke="#8C8C8C" stroke-width="1.5" stroke-miterlimit="10"/>
<path d="M5.93579 125.51H90.9394V160.31H130.816" stroke="#8C8C8C" stroke-miterlimit="10" stroke-linecap="round" stroke-linejoin="round" stroke-dasharray="8 8"/>
<path d="M230.659 0.229492V13.1553H247.325V176.678H179.748V182.032H247.325V236.412H152.2V245.055H255.848V0.229492H230.659ZM135.153 13.1553H162.017V0.229492H99.6147V13.1553H129.826V182.032H148.014V176.678H135.153V13.1553ZM93.6028 217.674H88.2758V236.489H8.75146V176.219H64.3805V162.987H88.2758V189.527H93.6028V157.634H8.75146V13.0788H30.2116V0.229492H0.228271V245.055H113.237V236.489H93.6028V217.674ZM59.0535 162.987V170.865H8.75146V162.987H59.0535Z" fill="#A6A6A6" stroke="black" stroke-width="0.5" stroke-miterlimit="10"/>
<path d="M147.253 267.694V240.772H151.743M113.237 240.848H117.27M117.27 241.231C119.401 256.298 131.957 267.847 147.101 267.847" stroke="black" stroke-width="0.5" stroke-miterlimit="10" stroke-linecap="round" stroke-linejoin="round"/>
<path d="M39.9524 178.437V234.653H10.5018V178.437H39.9524Z" fill="white" stroke="#8C8C8C" stroke-miterlimit="10"/>
<path d="M23.2866 181.726H27.2437C33.1795 181.726 37.4411 186.315 37.4411 191.975V227.234C37.4411 229.911 35.3103 232.053 32.6468 232.053H17.8835C15.22 232.053 13.0892 229.911 13.0892 227.234V191.975C13.0892 186.315 17.6552 181.726 23.2866 181.726Z" fill="white" stroke="#8C8C8C" stroke-miterlimit="10"/>
<path d="M25.5695 227.311C26.4942 227.311 27.2437 226.557 27.2437 225.628C27.2437 224.699 26.4942 223.945 25.5695 223.945C24.6449 223.945 23.8953 224.699 23.8953 225.628C23.8953 226.557 24.6449 227.311 25.5695 227.311Z" fill="white" stroke="#8C8C8C" stroke-miterlimit="10"/>
<path d="M52.9655 216.679H54.7158C60.8799 216.679 65.9025 221.804 65.9025 228.152V234.653H41.8549V228.152C41.8549 221.804 46.8775 216.679 52.9655 216.679Z" fill="white" stroke="#8C8C8C" stroke-miterlimit="10"/>
<path d="M53.2699 219.586H54.5636C59.1296 219.586 62.8585 223.945 62.8585 229.299V230.293C62.8585 230.752 62.5541 231.135 62.1736 231.135H45.5077C45.1272 231.135 44.8228 230.829 44.8228 230.293V229.299C44.8989 224.022 48.7039 219.586 53.2699 219.586Z" fill="white" stroke="#8C8C8C" stroke-miterlimit="10"/>
<path d="M53.7265 227.617C54.6511 227.617 55.4007 226.863 55.4007 225.934C55.4007 225.005 54.6511 224.251 53.7265 224.251C52.8019 224.251 52.0523 225.005 52.0523 225.934C52.0523 226.863 52.8019 227.617 53.7265 227.617Z" fill="white" stroke="#8C8C8C" stroke-miterlimit="10"/>
<path d="M82.4162 172.012H70.3163C69.0987 172.012 68.1855 170.865 68.4138 169.641L69.2509 164.823H83.6338L84.4709 169.641C84.547 170.865 83.6338 172.012 82.4162 172.012Z" fill="white" stroke="#8C8C8C" stroke-miterlimit="10"/>
<path d="M76.3282 190.063C72.2188 190.063 69.0226 186.544 69.2509 182.338L69.9358 171.936H82.7206L83.4055 182.338C83.6338 186.544 80.4376 190.063 76.3282 190.063Z" fill="white" stroke="#8C8C8C" stroke-miterlimit="10"/>
<path d="M72.9798 173.695L71.4578 181.955C71.3817 183.409 71.8383 184.862 72.7515 186.009C73.6647 187.08 75.0345 187.768 76.3282 187.768C77.6219 187.768 78.9917 187.156 79.9049 186.009C80.8942 184.938 81.3507 183.485 81.1985 181.955L79.6765 173.695H72.9798Z" fill="white" stroke="#8C8C8C" stroke-miterlimit="10"/>
<path d="M56.3139 134.076H35.1581V155.721H56.3139V134.076Z" fill="white" stroke="#8C8C8C" stroke-miterlimit="10"/>
<path d="M38.811 154.039H52.5089C53.2699 154.039 53.9548 153.35 53.9548 152.509V139.048C53.9548 138.207 53.2699 137.518 52.5089 137.518H38.811C38.05 137.518 37.3651 138.207 37.3651 139.048V152.509C37.4412 153.427 38.05 154.039 38.811 154.039Z" fill="white" stroke="#8C8C8C" stroke-miterlimit="10"/>
<path d="M49.9976 148.838C50.6825 148.838 51.2152 149.373 51.2152 150.062C51.2152 150.75 50.6825 151.285 49.9976 151.285C49.3127 151.285 48.78 150.75 48.78 150.062C48.78 149.45 49.3127 148.838 49.9976 148.838Z" fill="white" stroke="#8C8C8C" stroke-miterlimit="10"/>
</g>
<defs>
<clipPath id="clip0_1_51">
<rect width="256" height="268" fill="white"/>
</clipPath>
</defs>
</svg>
