<svg width="313" height="206" viewBox="0 0 313 206" fill="none" xmlns="http://www.w3.org/2000/svg">
<g clip-path="url(#clip0_1_110)">
<path d="M1.32544 51.3894H9.3879V104.823H1.32544V51.3894Z" fill="white" stroke="#8C8C8C" stroke-width="1.5" stroke-miterlimit="10" stroke-linecap="round"/>
<path d="M5.41187 51.3894V104.879" stroke="#8C8C8C" stroke-width="1.5" stroke-miterlimit="10" stroke-linecap="round"/>
<path d="M36.9438 196.661H90.3438V204.729H36.9438V196.661Z" fill="white" stroke="#8C8C8C" stroke-width="1.5" stroke-miterlimit="10" stroke-linecap="round"/>
<path d="M36.9438 200.64H90.3438" stroke="#8C8C8C" stroke-width="1.5" stroke-miterlimit="10" stroke-linecap="round"/>
<path d="M142.087 196.661H193.554V204.729H142.087V196.661Z" fill="white" stroke="#8C8C8C" stroke-width="1.5" stroke-miterlimit="10" stroke-linecap="round"/>
<path d="M142.087 200.64H193.554" stroke="#8C8C8C" stroke-width="1.5" stroke-miterlimit="10" stroke-linecap="round"/>
<path d="M241.266 196.661H292.678V204.729H241.211V196.661H241.266Z" fill="white" stroke="#8C8C8C" stroke-width="1.5" stroke-miterlimit="10" stroke-linecap="round"/>
<path d="M241.266 200.64H292.789" stroke="#8C8C8C" stroke-width="1.5" stroke-miterlimit="10" stroke-linecap="round"/>
<path d="M75.0471 32.215C74.5501 32.215 74.1636 31.8282 74.1636 31.3309C74.1636 30.8336 74.5501 30.4468 75.0471 30.4468C75.5441 30.4468 75.8755 30.8336 75.8755 31.3309C75.9307 31.8835 75.5441 32.215 75.0471 32.215Z" stroke="#8C8C8C" stroke-miterlimit="10" stroke-linecap="round" stroke-linejoin="round"/>
<path d="M70.519 42.714H85.5947V27.4077H70.519V42.714Z" stroke="#8C8C8C" stroke-miterlimit="10" stroke-linecap="round" stroke-linejoin="round"/>
<path d="M82.9993 28.5681H73.2802C72.728 28.5681 72.231 29.0102 72.231 29.618V39.1223C72.231 39.7301 72.6727 40.1722 73.2802 40.1722H82.9993C83.5515 40.1722 84.0485 39.7301 84.0485 39.1223V29.618C83.9381 29.0102 83.5515 28.5681 82.9993 28.5681Z" stroke="#8C8C8C" stroke-miterlimit="10" stroke-linecap="round" stroke-linejoin="round"/>
<path d="M47.1047 27.4077H31.2007V43.985H46.9943L47.1047 27.4077Z" stroke="#8C8C8C" stroke-miterlimit="10" stroke-linecap="round" stroke-linejoin="round"/>
<path d="M35.6185 34.0939C36.9439 34.0939 38.0483 32.9887 38.0483 31.6073C38.0483 30.2258 36.9439 29.0654 35.6185 29.0654C34.238 29.0654 33.1888 30.1706 33.1888 31.6073C33.1335 32.9335 34.238 34.0939 35.6185 34.0939Z" stroke="#8C8C8C" stroke-miterlimit="10" stroke-linecap="round" stroke-linejoin="round"/>
<path d="M35.6185 40.6696C36.9439 40.6696 38.0483 39.5645 38.0483 38.1278C38.0483 36.7463 36.9439 35.5859 35.6185 35.5859C34.238 35.5859 33.1888 36.6911 33.1888 38.1278C33.1335 39.5645 34.238 40.6696 35.6185 40.6696Z" stroke="#8C8C8C" stroke-miterlimit="10" stroke-linecap="round" stroke-linejoin="round"/>
<path d="M42.7423 34.0939C44.0676 34.0939 45.1721 32.9887 45.1721 31.6073C45.1721 30.2258 44.0676 29.0654 42.7423 29.0654C41.3618 29.0654 40.3125 30.1706 40.3125 31.6073C40.2573 32.9335 41.3618 34.0939 42.7423 34.0939Z" stroke="#8C8C8C" stroke-miterlimit="10" stroke-linecap="round" stroke-linejoin="round"/>
<path d="M42.7423 40.6696C44.0676 40.6696 45.1721 39.5645 45.1721 38.1278C45.1721 36.7463 44.0676 35.5859 42.7423 35.5859C41.3618 35.5859 40.3125 36.6911 40.3125 38.1278C40.2573 39.5645 41.3618 40.6696 42.7423 40.6696Z" stroke="#8C8C8C" stroke-miterlimit="10" stroke-linecap="round" stroke-linejoin="round"/>
<path d="M31.2007 42.7141H46.8286" stroke="#8C8C8C" stroke-miterlimit="10" stroke-linecap="round" stroke-linejoin="round"/>
<path d="M298.256 41.7747V51.6106C298.256 52.6052 299.195 53.3788 300.133 53.1578L303.999 52.4947V40.7801L300.133 40.117C299.195 40.0617 298.256 40.7801 298.256 41.7747Z" stroke="#8C8C8C" stroke-miterlimit="10" stroke-linecap="round" stroke-linejoin="round"/>
<path d="M283.567 46.6928C283.567 50.0082 286.438 52.6606 289.807 52.4395L298.201 51.887V41.4986L289.807 40.946C286.493 40.725 283.567 43.3773 283.567 46.6928Z" stroke="#8C8C8C" stroke-miterlimit="10" stroke-linecap="round" stroke-linejoin="round"/>
<path d="M296.765 49.4555L290.083 50.7264C288.868 50.7816 287.708 50.3948 286.825 49.6765C285.941 48.9029 285.444 47.853 285.444 46.7478C285.444 45.6427 285.941 44.5928 286.825 43.8192C287.708 43.0456 288.868 42.6588 290.083 42.7693L296.765 43.985V49.4555Z" stroke="#8C8C8C" stroke-miterlimit="10" stroke-linecap="round" stroke-linejoin="round"/>
<path d="M259.269 94.7113H304.054V76.8079H259.269V94.7113Z" stroke="#8C8C8C" stroke-miterlimit="10" stroke-linecap="round" stroke-linejoin="round"/>
<path d="M261.257 84.5441V86.9754C261.257 90.5671 264.018 93.1642 267.442 93.1642H299.526C301.127 93.1642 302.453 91.8381 302.453 90.2356V81.2839C302.453 79.6814 301.127 78.3552 299.526 78.3552H267.442C264.128 78.3552 261.257 81.1181 261.257 84.5441Z" stroke="#8C8C8C" stroke-miterlimit="10" stroke-linecap="round" stroke-linejoin="round"/>
<path d="M296.986 86.7542C297.504 86.7542 297.924 86.3337 297.924 85.8149C297.924 85.2961 297.504 84.8755 296.986 84.8755C296.467 84.8755 296.047 85.2961 296.047 85.8149C296.047 86.3337 296.467 86.7542 296.986 86.7542Z" stroke="#8C8C8C" stroke-miterlimit="10" stroke-linecap="round" stroke-linejoin="round"/>
<path d="M294.611 66.4748V67.3036C294.611 70.177 297.317 72.5531 300.686 72.5531H301.293C301.569 72.5531 301.845 72.3873 301.845 72.111V61.6674C301.845 61.3911 301.624 61.2253 301.293 61.2253H300.686C297.372 61.1701 294.611 63.5461 294.611 66.4748Z" stroke="#8C8C8C" stroke-miterlimit="10" stroke-linecap="round" stroke-linejoin="round"/>
<path d="M292.844 66.309V67.4141C292.844 71.3374 296.047 74.4318 300.023 74.4318H304.109V59.2913H300.023C295.992 59.2913 292.844 62.3857 292.844 66.309Z" stroke="#8C8C8C" stroke-miterlimit="10" stroke-linecap="round" stroke-linejoin="round"/>
<path d="M299.029 67.9114C299.578 67.9114 300.023 67.4661 300.023 66.9168C300.023 66.3674 299.578 65.9221 299.029 65.9221C298.48 65.9221 298.035 66.3674 298.035 66.9168C298.035 67.4661 298.48 67.9114 299.029 67.9114Z" stroke="#8C8C8C" stroke-miterlimit="10" stroke-linecap="round" stroke-linejoin="round"/>
<path d="M131.65 33.7624H142.308C143.357 33.7624 144.186 32.7678 144.02 31.7179L143.302 27.5183H130.601L129.883 31.7179C129.772 32.7678 130.601 33.7624 131.65 33.7624Z" stroke="#8C8C8C" stroke-miterlimit="10" stroke-linecap="round" stroke-linejoin="round"/>
<path d="M137.007 49.7318C140.596 49.7318 143.468 46.6374 143.247 42.9351L142.639 33.8176H131.374L130.767 42.9351C130.546 46.5821 133.307 49.7318 137.007 49.7318Z" stroke="#8C8C8C" stroke-miterlimit="10" stroke-linecap="round" stroke-linejoin="round"/>
<path d="M139.989 35.365L141.314 42.6037C141.369 43.8746 140.983 45.1456 140.154 46.1402C139.326 47.1348 138.166 47.6322 136.951 47.6322C135.736 47.6322 134.577 47.0796 133.748 46.1402C132.92 45.2008 132.478 43.9299 132.589 42.6037L133.914 35.365H139.989V35.365Z" stroke="#8C8C8C" stroke-miterlimit="10" stroke-linecap="round" stroke-linejoin="round"/>
<path d="M162.078 36.9121H162.906C165.833 36.9121 168.152 34.2045 168.152 30.8337V30.2259C168.152 29.9496 167.987 29.6733 167.71 29.6733H157.218C156.942 29.6733 156.776 29.8944 156.776 30.2259V30.8337C156.776 34.1492 159.151 36.9121 162.078 36.9121Z" stroke="#8C8C8C" stroke-miterlimit="10" stroke-linecap="round" stroke-linejoin="round"/>
<path d="M161.857 38.846H162.961C166.882 38.846 170.03 35.6411 170.03 31.6625V27.5735H154.843V31.6073C154.788 35.5306 157.991 38.846 161.857 38.846Z" stroke="#8C8C8C" stroke-miterlimit="10" stroke-linecap="round" stroke-linejoin="round"/>
<path d="M162.409 33.4861C162.958 33.4861 163.403 33.0408 163.403 32.4915C163.403 31.9421 162.958 31.4968 162.409 31.4968C161.86 31.4968 161.415 31.9421 161.415 32.4915C161.415 33.0408 161.86 33.4861 162.409 33.4861Z" stroke="#8C8C8C" stroke-miterlimit="10" stroke-linecap="round" stroke-linejoin="round"/>
<path d="M234.585 0.165771V22.6556H238.505M205.206 22.7108H208.741M208.741 22.4345C210.563 9.83584 221.442 0.165771 234.529 0.165771" stroke="black" stroke-width="0.5" stroke-miterlimit="10" stroke-linecap="round" stroke-linejoin="round"/>
<path d="M9.44312 66.1985H112.433M118.452 66.4748V96.7006" stroke="#8C8C8C" stroke-miterlimit="10" stroke-linecap="round" stroke-linejoin="round" stroke-dasharray="9.55 9.55"/>
<path d="M10.5476 105.155H0.165771V205.889H36.7782V195.446H10.5476V105.155ZM312.779 18.7875H236.683V26.6894H246.457V39.1776H250.985V26.6894H269.154V38.5697H304.827V95.8165H250.709V62.8278H246.181V95.8165H242.978V100.348H304.938V195.446H293.065V205.889H312.779V200.695H312.89V18.7875H312.779ZM273.682 26.6894H293.231V34.0386H273.682V26.6894ZM297.814 34.0386V26.6894H304.882V34.0386H297.814ZM216.14 100.292H220.724V95.706H202.666V100.292H211.557V195.391H193.775V205.834H240.935V195.391H216.085V100.292H216.14ZM112.101 195.391H90.6199V205.834H141.811V195.391H116.63V100.292H181.129V95.706H112.101V195.391ZM10.5476 26.6894H111.991V68.464H151.144V63.9329H125.355V26.6894H176.38V63.9329H172.128V68.464H180.908V26.6894H207.029V18.7875H38.9318V16.0247H0.165771V51.2237H10.6028V26.6894H10.5476ZM116.63 63.9329V43.5429H120.937V63.9329H116.63ZM120.937 39.0118H116.63V26.6894H120.937C120.937 26.6894 120.937 38.9565 120.937 39.0118Z" fill="#A6A6A6" stroke="black" stroke-width="0.5" stroke-miterlimit="10"/>
</g>
<defs>
<clipPath id="clip0_1_110">
<rect width="313" height="206" fill="white"/>
</clipPath>
</defs>
</svg>
