<svg xmlns="http://www.w3.org/2000/svg" xmlns:xlink="http://www.w3.org/1999/xlink"><symbol viewBox="0 0 30 22" id="arrow-left" xmlns="http://www.w3.org/2000/svg"><g clip-path="url(#aclip0_1_15)"><path d="M18.192 1.533a.897.897 0 000-1.27.898.898 0 00-1.27 0L7.54 9.61H3.07l8.106-8.078a.897.897 0 000-1.27.898.898 0 00-1.27 0L.263 9.866a.966.966 0 00-.196.291.902.902 0 000 .683.897.897 0 00.196.29l9.645 9.616c.351.35.918.35 1.27 0a.89.89 0 000-1.264l-8.113-8.078h4.47l9.388 9.342c.352.35.918.35 1.27 0a.89.89 0 000-1.264l-8.113-8.078h4.477l9.382 9.342c.352.35.918.35 1.27 0a.89.89 0 000-1.264l-8.113-8.078H29.1a.897.897 0 100-1.793H17.1l8.107-8.072a.897.897 0 000-1.27.898.898 0 00-1.27 0L14.556 9.61H10.08l8.112-8.078z"/></g><defs><clipPath id="aclip0_1_15"><path transform="rotate(180 15 10.504)" d="M0 0h30v21H0z"/></clipPath></defs></symbol><symbol viewBox="0 0 32 32" id="arrow-up" xmlns="http://www.w3.org/2000/svg"><path d="M.256 23.481a1.063 1.063 0 001.813.75l14.119-14.119 13.913 13.912c.413.413 1.087.413 1.5 0s.413-1.087 0-1.5L16.938 7.855a1.065 1.065 0 00-1.5 0L.569 22.724a1.051 1.051 0 00-.313.756z"/></symbol><symbol viewBox="0 0 54 67" id="doc" xmlns="http://www.w3.org/2000/svg"><g clip-path="url(#cclip0_2_207)"><path d="M8 0C3.6 0 0 3.6 0 8v50.7c0 4.4 3.6 8 8 8h38c4.4 0 8-3.6 8-8v-38c0-2.5-1-4.8-2.7-6.6L39.9 2.7C38.2 1 35.8 0 33.3 0H8zm0 3.3h25.3c1.6 0 3.1.6 4.2 1.7l11.4 11.4c1.1 1.1 1.8 2.6 1.8 4.2v38c0 2.6-2.1 4.7-4.7 4.7H8c-2.6 0-4.7-2.1-4.7-4.7V8c0-2.6 2.1-4.7 4.7-4.7z"/><path d="M27 19.1c-.4 0-.9.2-1.2.5-.3.3-.5.7-.5 1.2v22l-6.7-6.7c-.7-.7-1.7-.7-2.4 0s-.7 1.7 0 2.4l7.9 7.9c1.5 1.5 4 1.5 5.5 0l7.9-7.9c.7-.7.7-1.7 0-2.4s-1.7-.7-2.4 0l-6.7 6.7v-22c0-.4-.2-.9-.5-1.2-.3-.3-.5-.5-.9-.5z"/></g><defs><clipPath id="cclip0_2_207"><path d="M0 0h54v66.7H0z"/></clipPath></defs></symbol><symbol viewBox="0 0 22 16" id="email" xmlns="http://www.w3.org/2000/svg"><path d="M21 1H1v14h20V1z"/><path d="M1 1l10 9 10-9"/></symbol><symbol viewBox="0 0 18 27" id="loc" xmlns="http://www.w3.org/2000/svg"><g clip-path="url(#eclip0_2_229)"><path d="M9 25c5.3-5.6 8-10.9 8-16 0-4.4-3.6-8-8-8S1 4.6 1 9c0 5.1 2.7 10.4 8 16z"/><path d="M9 10.3a1.3 1.3 0 100-2.6 1.3 1.3 0 000 2.6z"/></g><defs><clipPath id="eclip0_2_229"><path d="M0 0h18v26.5H0z"/></clipPath></defs></symbol><symbol viewBox="0 0 14 22" id="phone" xmlns="http://www.w3.org/2000/svg"><path d="M13 2v18c0 .6-.4 1-1 1H2c-.6 0-1-.4-1-1V2c0-.6.4-1 1-1h10c.6 0 1 .4 1 1zM6 18h2"/></symbol><symbol viewBox="0 0 24 24" id="tg" xmlns="http://www.w3.org/2000/svg"><path d="M12 24c6.627 0 12-5.373 12-12S18.627 0 12 0 0 5.373 0 12s5.373 12 12 12z"/><path d="M9.8 17.467c-.4 0-.333-.134-.467-.534L8.267 13.2 17 8"/><path d="M9.8 17.467c.267 0 .4-.134.6-.267l1.6-1.6-2-1.267"/><path d="M10 14.467L14.867 18c.533.267.933.133 1.066-.467L17.867 8.2c.2-.8-.267-1.133-.8-.933l-11.6 4.466c-.8.334-.734.734-.134.934l2.934.933 6.866-4.267c.334-.2.6-.066.4.134"/><defs><linearGradient id="gpaint0_linear_2_251" x1="12.855" y1="12.291" x2="14.724" y2="16.56" gradientUnits="userSpaceOnUse"><stop stop-color="#EFF7FC"/><stop offset="1" stop-color="#fff"/></linearGradient></defs></symbol><symbol viewBox="0 0 24 24" id="vk" xmlns="http://www.w3.org/2000/svg"><path d="M0 12C0 5.4 5.281 0 11.967 0 18.652 0 24 5.4 24 12s-5.415 12-12.033 12C5.348 24 0 18.6 0 12z"/><path d="M11.566 17.267h.935s.268 0 .402-.2c.066-.2.066-.4.066-.4s0-1.267.602-1.467c.602-.2 1.337 1.267 2.14 1.733.601.4 1.069.267 1.069.267h2.14s1.069-.067.6-.933c0-.067-.267-.667-1.537-1.8-1.337-1.267-1.136-1.067.468-3.2.936-1.267 1.337-2.134 1.27-2.4-.066-.267-.869-.2-.869-.2h-2.406s-.2 0-.268.066c-.067.067-.2.267-.2.267s-.401.933-.87 1.8c-1.069 1.8-1.47 1.933-1.604 1.733-.4-.266-.267-1.066-.267-1.6 0-1.733.267-2.466-.468-2.666C12.5 8.2 12.3 8.2 11.632 8.2c-.869 0-1.537 0-1.938.2s-.602.467-.468.467c.2 0 .468.066.668.4.2.266.2 1.066.2 1.066s.201 2-.267 2.334c-.267.2-.668-.2-1.604-1.8-.468-.867-.87-1.734-.87-1.734s-.066-.2-.2-.266c-.067-.067-.4-.067-.4-.067H4.344s-.4 0-.468.2c-.066.067 0 .4 0 .4s1.739 4.133 3.744 6.267c1.805 1.733 3.944 1.6 3.944 1.6z"/></symbol></svg>